<?xml version="1.0" standalone="no"?>
<!DOCTYPE svg PUBLIC "-//W3C//DTD SVG 20010904//EN"
 "http://www.w3.org/TR/2001/REC-SVG-20010904/DTD/svg10.dtd">
<svg version="1.0" xmlns="http://www.w3.org/2000/svg"
 width="700.000000pt" height="700.000000pt" viewBox="0 0 700.000000 700.000000"
 preserveAspectRatio="xMidYMid meet">
<metadata>
Created by potrace 1.11, written by Peter Selinger 2001-2013
</metadata>
<g transform="translate(0.000000,700.000000) scale(0.100000,-0.100000)"
fill="#000000" stroke="none">
<path d="M1982 6247 c-19 -6 -47 -24 -63 -40 -25 -24 -29 -35 -24 -61 4 -17
18 -40 33 -51 98 -74 159 -156 164 -218 1 -14 3 -25 4 -24 55 62 136 177 143
204 17 59 -30 142 -101 179 -36 19 -114 24 -156 11z"/>
<path d="M1718 5834 c-61 -15 -106 -44 -155 -97 -92 -99 -95 -234 -7 -267 11
-5 65 -10 120 -11 155 -4 243 -33 336 -110 l47 -40 0 63 c0 35 3 104 6 154 9
114 -5 187 -44 232 -16 17 -33 32 -39 32 -5 0 -15 6 -21 13 -25 31 -172 50
-243 31z"/>
<path d="M2395 5843 c-109 -19 -176 -57 -208 -117 -22 -43 -23 -61 -19 -320
l2 -98 41 37 c43 38 141 89 194 100 17 4 73 9 125 11 129 5 153 10 181 40 35
38 34 122 -4 186 -64 109 -202 180 -312 161z"/>
<path d="M1890 5099 c-328 -42 -588 -129 -855 -286 -334 -196 -626 -507 -803
-858 -69 -136 -119 -261 -148 -370 -17 -64 -46 -187 -50 -215 -3 -19 -7 -42
-9 -50 -12 -46 -20 -177 -20 -340 0 -230 10 -333 50 -545 2 -11 5 -23 5 -27 1
-4 6 -22 11 -40 6 -18 17 -58 25 -88 39 -144 127 -348 211 -488 159 -263 390
-497 643 -650 168 -103 556 -248 830 -311 268 -63 473 -86 755 -85 235 0 371
12 580 49 17 3 67 15 112 25 46 11 93 22 105 24 30 6 238 70 308 95 131 46
356 148 495 222 119 65 377 221 430 261 6 4 64 48 130 97 371 275 712 612
1013 1000 l19 24 34 -26 c115 -87 268 -98 432 -31 187 78 421 280 636 549 31
39 59 72 62 75 3 3 29 38 57 79 l52 74 -43 31 c-154 117 -312 175 -487 181
-92 4 -128 0 -215 -19 -39 -8 -158 -57 -194 -78 -20 -12 -47 -29 -61 -37 l-25
-15 26 30 c100 111 170 302 163 449 -7 179 -84 365 -222 537 l-29 37 -86 -87
c-288 -294 -626 -661 -709 -769 -22 -29 -46 -70 -53 -90 -40 -116 43 -304 217
-491 22 -24 39 -45 37 -46 -24 -20 -145 -62 -232 -80 -87 -18 -231 -18 -301 0
-287 75 -519 350 -636 754 -32 113 -97 278 -147 375 -38 74 -114 206 -123 215
-3 3 -20 28 -39 55 -316 459 -868 798 -1416 871 -22 3 -51 8 -65 11 -43 9
-402 10 -470 2z"/>
</g>
</svg>
