<?xml version="1.0" encoding="UTF-8" standalone="no"?>
<!DOCTYPE svg PUBLIC "-//W3C//DTD SVG 1.1//EN" "http://www.w3.org/Graphics/SVG/1.1/DTD/svg11.dtd">
<svg width="100%" height="100%" viewBox="0 0 1435 831" version="1.1" xmlns="http://www.w3.org/2000/svg" xmlns:xlink="http://www.w3.org/1999/xlink" xml:space="preserve" xmlns:serif="http://www.serif.com/" style="fill-rule:evenodd;clip-rule:evenodd;stroke-linejoin:round;stroke-miterlimit:2;">
    <g id="lower-cloud">
        <path d="M658.291,535.525c-29.297,0.18 -56.322,5.343 -78.932,10.861c-30.568,7.463 -53.105,15.534 -62.412,12.666c-8.915,13.02 -37.576,26.428 -51.232,20.134c-3.538,16.879 -22.115,10.686 -30.922,0c-9.697,22.712 -42.279,18.718 -50.31,8.279c2.227,16.733 -25.58,25.051 -39.274,17.369c-10.439,20.804 -26.643,26.535 -48.155,28.239c-21.542,1.693 -46.171,-14.156 -59.225,-33.121c-25.72,9.516 -58.453,1.383 -61.811,-28.302c-11.85,11.035 -18.751,20.945 -34.251,21.265c-15.495,0.349 -39.095,-12.312 -39.236,-29.403c-6.119,2.086 -31.699,-9.129 -56.395,-19.393c-18.999,-7.919 -37.43,-15.281 -46.136,-15.635c0,0 66.547,-5.945 79.606,-15.073c26.536,-18.572 43.341,-14.54 48.155,-10.507c3.145,-4.314 17.121,-1.732 23.493,-2.761c4.101,-15.175 12.807,-35.664 26.395,-40.9c13.549,-5.202 29.326,-2.791 41.108,6.265c2.087,-7.255 8.707,-12.666 15.607,-12.739c6.93,-0.107 13.656,5.13 15.884,12.351c2.902,-10.9 17.688,-14.967 24.905,-6.794c3.751,-19.853 21.551,-35.242 39.876,-34.533c18.363,0.708 35.168,17.407 37.682,37.469c1.344,-9.978 9.41,-18.364 18.538,-19.213c9.128,-0.849 18.363,5.911 21.231,15.495c11.744,-7.536 29.224,2.339 30.53,17.267c9.414,-12.346 25.264,-18.291 39.555,-14.86c14.297,3.431 26.429,16.136 30.326,31.699c7.109,-8.88 19.703,-11.744 29.433,-6.721c9.73,5.028 15.747,17.548 14.117,29.263c7.429,-8.954 22.041,-11.608 45.888,2.3c20.872,12.205 69.775,18.291 75.399,18.96c0.175,0.039 0.389,0.039 0.563,0.073" style="fill:white;fill-rule:nonzero;"/>
        <path d="M579.356,546.386c-30.568,7.464 -53.104,15.534 -62.407,12.666c-8.92,13.02 -37.576,26.429 -51.237,20.13c-3.538,16.878 -22.11,10.691 -30.922,0c-9.692,22.716 -42.279,18.717 -50.31,8.279c2.232,16.737 -25.58,25.055 -39.274,17.373c-10.434,20.804 -26.638,26.536 -48.15,28.234c-21.547,1.699 -46.175,-14.151 -59.23,-33.116c-25.72,9.517 -58.448,1.378 -61.806,-28.302c-11.855,11.036 -18.756,20.945 -34.251,21.266c-15.495,0.349 -39.095,-12.317 -39.236,-29.404c-6.124,2.087 -31.703,-9.128 -56.395,-19.392c13.088,-0.844 26.036,-3.746 38.212,-8.667c8.385,13.234 23.982,21.546 39.589,21.124c15.636,-0.427 30.782,-9.555 38.42,-23.177c3.47,13.166 13.943,24.274 26.89,28.52c12.952,4.247 27.953,1.451 38.532,-7.114c8.808,19.887 31.558,32.621 53.105,29.685c21.581,-2.897 40.123,-21.226 43.341,-42.739c1.771,10.647 10.365,19.814 20.877,22.289c10.506,2.48 22.289,-1.912 28.588,-10.686c18.397,16.063 51.334,9.628 62.34,-12.132c8.099,8.279 22.537,9.196 31.665,2.087c8.104,-6.372 11.074,-18.33 7.323,-27.846c8.847,15.641 29.544,21.231 47.801,24.128c18.751,3.009 37.609,5.275 56.535,6.794Z" style="fill:url(#_Linear1);fill-rule:nonzero;"/>
    </g>
    <path id="right-wing" d="M775.051,190.361c2.922,-27.074 11.894,-53.475 26.079,-76.721c10.125,-16.591 23.486,-32.039 41.238,-39.94c-15.684,-32.348 -43.447,-58.317 -78.117,-67.821c-34.67,-9.499 -71.844,-6.692 -106.533,2.747c19.9,10.088 33.134,31.049 35.168,53.269c2.033,22.216 -8.049,45.171 -25.784,58.702c10.032,-8.445 20.132,-10.168 32.95,-12.945c9.964,-2.159 20.422,-3.255 30.302,-0.744c9.884,2.506 19.148,9.124 22.725,18.675c3.57,9.552 0.025,21.849 -9.1,26.389c14.665,7.521 24.006,27.478 18.867,43.145c3.38,3.562 10.194,3.91 12.205,-4.756" style="fill:rgb(246,174,176);fill-rule:nonzero;"/>
    <g id="book">
        <path d="M610.938,589.81c0,0 -5.398,29.124 -23.264,43.387l6.041,-30.151c0,0 -22.008,15.202 -28.379,13.564c0,0 22.137,-32.751 18.649,-49.071c-3.488,-16.32 0,0 0,0l26.953,22.271" style="fill:rgb(31,0,64);fill-rule:nonzero;"/>
        <path d="M764.549,193.25l-225.746,-94.511l-84.218,367.428l186.48,147.469l123.484,-420.386Z" style="fill:rgb(55,85,137);fill-rule:nonzero;"/>
        <path d="M550.297,103.553l28.419,0.674l59.198,20.445l-39.39,-22.474l62.189,3.984l190.814,80.674l-86.977,6.397l-214.253,-89.7Z" style="fill:rgb(198,182,128);fill-rule:nonzero;"/>
        <path d="M848.662,188.053l-164.589,-80.885l-3.987,7.199l168.576,73.686Z" style="fill:rgb(179,140,111);fill-rule:nonzero;"/>
        <path d="M632.634,122.396c0.514,-1.141 31.424,11.768 69.02,28.836c37.614,17.075 67.67,31.827 67.156,32.968c-0.523,1.142 -31.415,-11.76 -69.029,-28.835c-37.596,-17.068 -67.661,-31.828 -67.147,-32.969" style="fill:rgb(179,140,111);fill-rule:nonzero;"/>
        <path d="M617.441,102.929c0.559,-1.126 38.347,16.506 84.389,39.369c46.06,22.871 82.931,42.315 82.372,43.441c-0.55,1.117 -38.329,-16.506 -84.389,-39.377c-46.042,-22.863 -82.93,-42.307 -82.372,-43.433" style="fill:rgb(179,140,111);fill-rule:nonzero;"/>
        <path d="M860.85,186.173c-0.57,9.779 -114.987,416.494 -114.987,416.494l-104.802,10.965l123.485,-420.377l96.304,-7.082Z" style="fill:rgb(13,53,126);fill-rule:nonzero;"/>
        <path d="M818.533,265.035l-83.502,277.868l-38.912,2.738l83.133,-274.396l39.281,-6.21Z" style="fill:rgb(255,178,60);fill-rule:nonzero;"/>
        <path d="M780.349,252.764c0.367,2.396 11.032,2.735 23.814,0.769c12.783,-1.975 22.839,-5.518 22.471,-7.914c-0.376,-2.395 -11.032,-2.735 -23.815,-0.769c-12.782,1.975 -22.838,5.518 -22.47,7.914" style="fill:rgb(255,178,60);fill-rule:nonzero;"/>
        <path d="M676.532,304.198l-21.718,72.27l-132.564,-76.847l13.819,-61.012l140.463,65.589Z" style="fill:rgb(0,129,166);fill-rule:nonzero;"/>
        <path d="M514.093,316.931c-1.277,2.071 27.365,22.019 63.949,44.563c36.592,22.553 67.288,39.16 68.556,37.09c1.269,-2.061 -27.356,-22.01 -63.958,-44.562c-36.583,-22.545 -67.279,-39.152 -68.547,-37.091" style="fill:rgb(0,129,166);fill-rule:nonzero;"/>
        <path d="M695.243,560.73c0.272,2.41 8.23,3.582 17.992,2.878c9.954,-0.699 17.675,-4.018 17.257,-6.375c-0.43,-2.427 -8.362,-3.05 -17.942,-2.375c-9.762,0.704 -17.579,3.461 -17.307,5.872" style="fill:rgb(255,178,60);fill-rule:nonzero;"/>
        <path d="M537.672,356.877c-1.094,2.19 15.877,12.807 37.332,24.751c21.48,11.916 39.448,20.715 40.732,18.636c1.271,-2.035 -14.79,-14.28 -36.469,-26.315c-21.653,-12.045 -40.533,-19.225 -41.595,-17.072" style="fill:rgb(0,129,166);fill-rule:nonzero;"/>
        <path d="M614.152,176.729c-0.827,2.278 7.589,7.447 18.811,11.541c11.221,4.095 20.987,5.564 21.815,3.286c0.836,-2.278 -7.589,-7.438 -18.81,-11.532c-11.213,-4.095 -20.988,-5.564 -21.816,-3.295" style="fill:rgb(0,129,166);fill-rule:nonzero;"/>
        <path d="M756.496,178.139c0,0 1.622,-5.357 6.488,-2.945c4.865,2.422 0,0 0,0l-20.778,-10.318c0,0 -6.318,1.45 -5.667,5.889c0.652,4.438 0,0 0,0l19.957,7.374" style="fill:rgb(31,0,64);fill-rule:nonzero;"/>
    </g>
    <path id="left-wing" d="M621.42,194.572c-18.32,-20.145 -32.12,-44.376 -40.105,-70.405c-5.703,-18.581 -8.399,-38.828 -2.532,-57.356c-34.609,-9.722 -72.462,-6.177 -102.57,13.465c-30.108,19.641 -52.666,49.321 -68.617,81.539c20.748,-8.197 45.213,-4.196 63.187,9.022c17.973,13.214 28.465,35.989 26.825,58.234c0.33,-13.109 5.744,-21.809 12.168,-33.246c4.993,-8.885 11.114,-17.436 19.548,-23.167c8.429,-5.735 19.53,-8.272 29.049,-4.613c9.512,3.665 16.365,14.47 13.707,24.316c15.356,-5.988 36.489,0.267 44.806,14.499c4.903,-0.164 9.684,-5.031 4.534,-12.288" style="fill:rgb(249,192,209);fill-rule:nonzero;"/>
    <g id="upper-cloud">
        <path d="M1434.48,152.377c-29.297,0.18 -56.323,5.343 -78.932,10.861c-30.568,7.464 -53.105,15.534 -62.413,12.666c-8.915,13.02 -37.576,26.429 -51.232,20.135c-3.537,16.878 -22.114,10.686 -30.922,0c-9.696,22.711 -42.278,18.717 -50.31,8.279c2.228,16.732 -25.579,25.05 -39.274,17.368c-10.438,20.804 -26.642,26.536 -48.155,28.239c-21.542,1.694 -46.17,-14.156 -59.224,-33.121c-25.72,9.517 -58.453,1.383 -61.811,-28.302c-11.851,11.036 -18.752,20.945 -34.252,21.265c-15.495,0.35 -39.094,-12.311 -39.235,-29.403c-6.12,2.087 -31.699,-9.128 -56.395,-19.392c-18.999,-7.92 -37.43,-15.282 -46.137,-15.636c0,0 66.548,-5.945 79.607,-15.073c26.535,-18.572 43.341,-14.539 48.155,-10.506c3.145,-4.315 17.121,-1.733 23.493,-2.762c4.1,-15.175 12.806,-35.663 26.394,-40.9c13.55,-5.202 29.326,-2.79 41.109,6.265c2.087,-7.255 8.706,-12.666 15.607,-12.738c6.93,-0.107 13.656,5.129 15.883,12.35c2.902,-10.899 17.689,-14.966 24.905,-6.794c3.751,-19.853 21.552,-35.241 39.876,-34.533c18.363,0.709 35.169,17.407 37.683,37.469c1.344,-9.977 9.409,-18.363 18.538,-19.212c9.128,-0.85 18.363,5.91 21.231,15.495c11.744,-7.537 29.224,2.339 30.529,17.266c9.415,-12.345 25.264,-18.29 39.556,-14.859c14.296,3.431 26.429,16.136 30.325,31.699c7.11,-8.881 19.703,-11.744 29.433,-6.722c9.73,5.028 15.748,17.548 14.117,29.263c7.43,-8.953 22.042,-11.608 45.889,2.301c20.872,12.204 69.774,18.29 75.399,18.96c0.174,0.039 0.388,0.039 0.563,0.072" style="fill:white;fill-rule:nonzero;"/>
        <path d="M1355.54,163.239c-30.568,7.463 -53.105,15.534 -62.408,12.666c-8.919,13.02 -37.576,26.428 -51.236,20.129c-3.538,16.879 -22.11,10.691 -30.923,0c-9.691,22.717 -42.278,18.718 -50.31,8.279c2.233,16.738 -25.579,25.056 -39.274,17.374c-10.433,20.804 -26.637,26.535 -48.15,28.234c-21.547,1.698 -46.175,-14.151 -59.229,-33.116c-25.72,9.516 -58.448,1.378 -61.806,-28.302c-11.856,11.035 -18.757,20.945 -34.252,21.265c-15.495,0.349 -39.095,-12.317 -39.235,-29.404c-6.125,2.087 -31.704,-9.128 -56.395,-19.392c13.088,-0.844 26.035,-3.746 38.211,-8.667c8.386,13.234 23.983,21.547 39.59,21.125c15.636,-0.427 30.781,-9.556 38.42,-23.178c3.47,13.166 13.942,24.274 26.89,28.521c12.952,4.246 27.952,1.451 38.531,-7.115c8.808,19.887 31.559,32.621 53.105,29.685c21.581,-2.897 40.124,-21.226 43.341,-42.739c1.772,10.647 10.366,19.814 20.877,22.289c10.507,2.48 22.289,-1.912 28.588,-10.686c18.398,16.063 51.334,9.628 62.34,-12.132c8.1,8.279 22.537,9.196 31.665,2.087c8.105,-6.372 11.075,-18.329 7.323,-27.846c8.847,15.641 29.545,21.232 47.801,24.129c18.752,3.008 37.61,5.275 56.536,6.794Z" style="fill:url(#_Linear2);fill-rule:nonzero;"/>
    </g>
    <defs>
        <linearGradient id="_Linear1" x1="0" y1="0" x2="1" y2="0" gradientUnits="userSpaceOnUse" gradientTransform="matrix(0,-111.016,111.016,-0,312.747,660.832)"><stop offset="0" style="stop-color:white;stop-opacity:1"/><stop offset="0.02" style="stop-color:white;stop-opacity:1"/><stop offset="1" style="stop-color:rgb(220,219,226);stop-opacity:1"/><stop offset="1" style="stop-color:rgb(220,219,226);stop-opacity:1"/></linearGradient>
        <linearGradient id="_Linear2" x1="0" y1="0" x2="1" y2="0" gradientUnits="userSpaceOnUse" gradientTransform="matrix(0,-111.016,111.016,-0,1088.93,277.684)"><stop offset="0" style="stop-color:white;stop-opacity:1"/><stop offset="0.02" style="stop-color:white;stop-opacity:1"/><stop offset="1" style="stop-color:rgb(220,219,226);stop-opacity:1"/><stop offset="1" style="stop-color:rgb(220,219,226);stop-opacity:1"/></linearGradient>
    </defs>
    <style>
      #left-wing, #right-wing {
        animation: flap .3s linear alternate-reverse infinite;
      }

      #left-wing {
        transform-origin: 618.124px 202.925px;
      }

      #right-wing {
        transform-origin: 768.434px 193.75px;
      }

      #upper-cloud, #lower-cloud {
        animation: passingby 1s linear infinite;
      }

      @keyframes flap {
        0% {
          transform: rotate(-10deg);
        }
        100% {
          transform: rotate(10deg);
        }
      }

      @keyframes passingby {
        0% {
          transform: translateX(1435px);
        }
        100% {
          transform: translateX(-1435px);
        }
      }
    </style>
</svg>
